<mxfile host="app.diagrams.net" modified="2024-07-08T16:52:02.150Z" agent="Mozilla/5.0 (Macintosh; Intel Mac OS X 10_15_7) AppleWebKit/537.36 (KHTML, like Gecko) Chrome/126.0.0.0 Safari/537.36" version="24.6.4" etag="AVvSgA88CzQGjR-bKv2Y" type="github">
  <diagram name="PÃ¡gina-1" id="-Vgco-XB8DVjGrvwzShZ">
    <mxGraphModel>
      <root>
        <mxCell id="0" />
        <mxCell id="1" parent="0" />
      </root>
    </mxGraphModel>
  </diagram>
</mxfile>
